<?xml version="1.0" standalone="no"?>
<!DOCTYPE svg PUBLIC "-//W3C//DTD SVG 20010904//EN"
 "http://www.w3.org/TR/2001/REC-SVG-20010904/DTD/svg10.dtd">
<svg version="1.0" xmlns="http://www.w3.org/2000/svg"
 width="300.000000pt" height="300.000000pt" viewBox="0 0 300.000000 300.000000"
 preserveAspectRatio="xMidYMid meet">
<metadata>
Created by potrace 1.10, written by Peter Selinger 2001-2011
</metadata>
<g transform="translate(0.000000,300.000000) scale(0.100000,-0.100000)"
fill="#000000" stroke="none">
<path d="M1225 2974 c-292 -53 -574 -203 -788 -420 -127 -129 -199 -231 -277
-389 -98 -198 -151 -398 -149 -559 l0 -71 15 39 c8 22 16 42 19 44 3 3 5 -53
4 -124 l-1 -129 -16 45 -17 45 -3 -63 c-7 -140 49 -356 142 -547 151 -310 377
-537 691 -690 172 -85 339 -132 525 -149 l65 -6 -73 20 c-195 52 -341 189
-410 382 -34 95 -42 253 -18 349 54 216 220 389 426 444 30 8 67 15 83 15 l27
0 0 -488 0 -487 -29 -13 c-38 -17 -65 -73 -57 -120 20 -126 212 -126 232 0 8
47 -19 103 -57 120 l-29 13 0 487 0 488 28 0 c15 0 52 -7 82 -15 206 -55 372
-228 426 -444 24 -96 16 -254 -18 -349 -69 -193 -215 -330 -410 -382 l-73 -20
65 6 c356 33 682 187 934 441 126 127 198 230 276 388 98 198 151 398 149 559
l0 71 -19 -40 -19 -40 0 115 0 115 19 -40 19 -40 0 71 c2 161 -51 361 -149
559 -154 313 -395 546 -722 699 -164 77 -366 126 -512 126 l-71 -1 35 -17 35
-17 -53 -3 c-28 -2 -76 -2 -105 0 l-52 3 35 17 35 17 -80 0 c-44 -1 -116 -7
-160 -15z m545 -89 c560 -113 988 -538 1113 -1105 28 -129 30 -414 4 -540 -60
-288 -192 -535 -391 -735 -103 -103 -192 -171 -330 -248 -94 -53 -106 -62 -91
-73 15 -11 14 -14 -12 -27 -46 -22 -153 -60 -158 -55 -3 2 20 33 51 69 188
217 217 531 72 777 -54 92 -162 192 -259 240 -102 50 -206 72 -244 52 -21 -11
-29 -11 -50 0 -38 20 -142 -2 -245 -53 -147 -72 -271 -218 -323 -382 -18 -58
-22 -92 -22 -205 1 -122 4 -142 28 -206 37 -99 67 -149 132 -224 30 -35 53
-65 51 -67 -4 -5 -122 35 -159 54 -26 13 -27 16 -12 27 15 11 3 20 -91 73
-138 77 -227 145 -330 248 -197 197 -325 434 -387 715 -30 137 -30 423 0 560
114 514 466 905 958 1063 61 19 144 40 185 46 41 6 86 13 100 15 51 9 337 -4
410 -19z m-228 -2722 c38 -34 11 -103 -40 -103 -54 0 -81 62 -45 102 20 22 61
23 85 1z"/>
<path d="M1432 2717 c-29 -29 -52 -59 -52 -68 0 -8 20 -35 45 -59 l45 -44 0
-353 0 -353 -42 0 c-112 -1 -278 -58 -401 -140 -190 -125 -324 -317 -383 -548
-19 -76 -24 -120 -24 -224 0 -191 30 -312 119 -475 57 -106 198 -260 218 -239
7 7 6 8 -98 136 -82 100 -143 221 -175 347 -43 169 -32 384 27 543 112 302
380 518 689 556 30 3 65 13 78 20 19 12 25 12 45 0 12 -8 48 -17 80 -21 323
-38 585 -261 698 -595 29 -86 33 -110 37 -242 4 -127 1 -161 -17 -242 -35
-149 -105 -281 -223 -419 -58 -68 -68 -87 -47 -87 16 0 130 117 166 170 113
166 163 332 163 546 0 106 -5 150 -24 226 -59 231 -193 423 -383 548 -123 82
-289 139 -400 140 l-43 0 0 353 0 353 45 44 c25 24 45 51 45 60 0 20 -101 120
-121 120 -8 0 -38 -24 -67 -53z m105 -29 c31 -29 29 -48 -7 -83 l-30 -29 -37
37 -37 37 29 30 c34 36 51 37 82 8z"/>
</g>
</svg>
